<svg width="24" height="25" viewBox="0 0 24 25" fill="none" xmlns="http://www.w3.org/2000/svg">
<path d="M2.33789 3.78119H8.23122C9.27323 3.78119 10.2726 4.19512 11.0094 4.93193C11.7462 5.66874 12.1601 6.66807 12.1601 7.71008V21.4612C12.1601 20.6797 11.8497 19.9302 11.2971 19.3776C10.7444 18.825 9.99495 18.5145 9.21345 18.5145H2.33789V3.78119Z" stroke="white" stroke-width="1.105" stroke-linecap="round" stroke-linejoin="round"/>
<path d="M21.9824 3.78119H16.089C15.047 3.78119 14.0477 4.19512 13.3109 4.93193C12.5741 5.66874 12.1602 6.66807 12.1602 7.71008V21.4612C12.1602 20.6797 12.4706 19.9302 13.0232 19.3776C13.5758 18.825 14.3253 18.5145 15.1068 18.5145H21.9824V3.78119Z" stroke="white" stroke-width="1.105" stroke-linecap="round" stroke-linejoin="round"/>
</svg>
