<svg width="34" height="34" viewBox="0 0 34 34" fill="none" xmlns="http://www.w3.org/2000/svg">
<path d="M32.5832 26.9167C32.5832 27.6681 32.2847 28.3888 31.7533 28.9201C31.2219 29.4515 30.5013 29.75 29.7498 29.75H4.24984C3.49839 29.75 2.77772 29.4515 2.24637 28.9201C1.71501 28.3888 1.4165 27.6681 1.4165 26.9167V11.3333C1.4165 10.5819 1.71501 9.86122 2.24637 9.32986C2.77772 8.79851 3.49839 8.5 4.24984 8.5H9.9165L12.7498 4.25H21.2498L24.0832 8.5H29.7498C30.5013 8.5 31.2219 8.79851 31.7533 9.32986C32.2847 9.86122 32.5832 10.5819 32.5832 11.3333V26.9167Z" stroke="#2AC3A5" stroke-width="2" stroke-linecap="round" stroke-linejoin="round"/>
<path d="M17.0002 24.0833C20.1298 24.0833 22.6668 21.5463 22.6668 18.4167C22.6668 15.2871 20.1298 12.75 17.0002 12.75C13.8705 12.75 11.3335 15.2871 11.3335 18.4167C11.3335 21.5463 13.8705 24.0833 17.0002 24.0833Z" stroke="#2AC3A5" stroke-width="2" stroke-linecap="round" stroke-linejoin="round"/>
</svg>
