<svg width="18" height="18" viewBox="0 0 18 18" fill="none" xmlns="http://www.w3.org/2000/svg">
<path d="M2.13965 5.23611H3.55632L14.8896 5.23611" stroke="#B74242" stroke-width="0.53769" stroke-linecap="round" stroke-linejoin="round"/>
<path d="M13.4733 5.23646V15.1531C13.4733 15.5288 13.3241 15.8892 13.0584 16.1549C12.7927 16.4205 12.4324 16.5698 12.0566 16.5698H4.97331C4.59758 16.5698 4.23725 16.4205 3.97157 16.1549C3.7059 15.8892 3.55664 15.5288 3.55664 15.1531L3.55664 5.23646M5.68164 5.23646V3.81979C5.68164 3.44407 5.8309 3.08373 6.09657 2.81805C6.36225 2.55238 6.72258 2.40312 7.09831 2.40312L9.93164 2.40312C10.3074 2.40312 10.6677 2.55238 10.9334 2.81805C11.1991 3.08373 11.3483 3.44407 11.3483 3.81979V5.23646" stroke="#B74242" stroke-width="0.53769" stroke-linecap="round" stroke-linejoin="round"/>
</svg>
