<svg width="23" height="34" viewBox="0 0 23 34" fill="none" xmlns="http://www.w3.org/2000/svg">
<g clip-path="url(#clip0_116_417)">
<path d="M1.27429 2.87207C1.27429 3.74982 5.87057 4.46248 11.5401 4.46248C17.2058 4.46248 21.8021 3.74982 21.8021 2.87207" stroke="white" stroke-width="0.247688" stroke-miterlimit="10"/>
<path d="M21.8021 30.7546C21.8021 30.7546 21.8021 30.8915 21.8021 30.9599C21.8021 31.8377 17.2058 32.5503 11.5401 32.5503C5.87057 32.5503 1.27429 31.8377 1.27429 30.9599C1.27429 30.8915 1.27429 30.7546 1.27429 30.7546V2.87207C1.27429 3.74982 5.87057 4.46248 11.5401 4.46248C17.2058 4.46248 21.8021 3.74982 21.8021 2.87207V30.7546Z" stroke="white" stroke-width="1.23844" stroke-miterlimit="10"/>
<path d="M21.4925 2.92334V30.3019C21.4925 30.3019 21.4925 30.4432 21.4925 30.5228C21.4925 31.4682 17.0361 32.2281 11.5398 32.2281C6.03974 32.2281 1.58337 31.4682 1.58337 30.5228C1.58337 30.4432 1.58337 30.3019 1.58337 30.3019V2.92334C1.58337 3.86438 6.03974 4.63312 11.5398 4.63312C17.0361 4.63312 21.4925 3.86438 21.4925 2.92334Z" fill="#2AC3A5"/>
<path d="M21.4925 2.92574C21.4925 3.84621 17.0361 4.59814 11.5398 4.59814C6.03974 4.59814 1.58337 3.84621 1.58337 2.92574C1.58337 2.00095 6.03974 1.24902 11.5398 1.24902C17.0361 1.24902 21.4925 2.00528 21.4925 2.92574Z" fill="#2AC3A5" stroke="white" stroke-width="0.247688" stroke-miterlimit="10"/>
<path d="M21.8021 2.87215C21.8021 3.74989 17.2058 4.46256 11.5401 4.46256C5.87057 4.46256 1.27429 3.74989 1.27429 2.87215C1.27429 1.9944 5.87057 1.28174 11.5401 1.28174C17.2058 1.28174 21.8021 1.9944 21.8021 2.87215Z" stroke="white" stroke-width="0.743065" stroke-miterlimit="10"/>
</g>
<defs>
<clipPath id="clip0_116_417">
<rect width="22.4239" height="33.2819" fill="white" transform="translate(0.325928 0.274902)"/>
</clipPath>
</defs>
</svg>
