<svg width="137" height="95" viewBox="0 0 137 95" fill="none" xmlns="http://www.w3.org/2000/svg">
<g clip-path="url(#clip0_69_822)">
<path d="M52.6439 86.7913C33.8035 85.1122 17.6874 69.5727 14.7947 48.7364C14.3356 45.424 14.2284 42.1421 14.458 38.9212C14.6111 36.83 14.8865 34.7845 15.3151 32.7848C15.2998 32.7848 15.2998 32.7848 15.2692 32.7848C8.22888 33.7618 1.72427 28.9534 0.576395 22.008C0.392735 20.1304 0.46926 18.2681 0.836579 16.4669C1.49469 13.017 3.07111 9.85725 5.35155 7.24699C6.72899 5.67473 8.32071 4.31617 10.142 3.24764C11.596 2.39282 13.1724 1.72117 14.8406 1.24797C15.6824 1.01899 16.5548 0.835818 17.4578 0.713701C18.07 0.637377 18.6516 0.561054 19.2485 0.545789C22.1564 0.408407 24.9725 0.927406 27.5591 1.96541C32.8546 4.16352 36.9563 8.51396 38.6705 14.0093C41.2876 22.4048 36.9716 31.0752 35.5789 39.3181C35.135 41.9436 34.8595 44.676 34.8442 47.3168C34.8136 54.476 36.3594 61.6198 39.2062 68.1989C40.7366 71.7403 42.6498 75.1138 44.9149 78.2431C46.0628 79.8459 47.3025 81.3724 48.634 82.8225C49.2921 83.5552 49.9809 84.2574 50.6849 84.9443C51.0369 85.3106 52.1389 86.7455 52.6439 86.7913Z" fill="white"/>
<path d="M67.8417 5.64421C63.3267 7.93391 59.3627 10.8495 55.965 14.2077C41.8079 28.2512 37.645 50.3087 47.1953 69.008C53.9754 82.2882 67.3366 92.1187 82.213 94.1337C87.83 94.8969 93.7836 94.5763 98.9567 92.1187C107.068 88.272 111.17 79.2811 109.441 70.5802C109.272 69.7407 109.058 68.9316 108.782 68.1226C108.461 67.1609 108.063 66.2145 107.589 65.2986C106.089 62.3678 103.992 59.9407 101.497 58.1242C100.717 57.5136 99.676 56.7962 98.3751 56.1551C97.0742 55.514 95.8804 55.1324 94.9162 54.9034C90.0951 53.5143 84.769 53.8959 79.9479 56.3383C79.1061 56.7657 78.295 57.2389 77.545 57.7731C76.8257 56.7351 76.1676 55.6361 75.5707 54.4912C71.6679 46.8589 71.6526 38.2649 74.7901 31.0294C77.2083 25.4425 81.4937 20.6494 87.3402 17.6881C99.2475 11.6432 113.558 15.2457 121.44 25.6104C122.281 26.7095 123.062 27.8849 123.735 29.1518C123.812 29.2587 123.858 29.3808 123.919 29.5029C124.317 30.1593 124.684 30.831 125.036 31.5331C127.378 36.1278 128.893 40.9057 129.643 45.7293C129.919 47.4695 130.715 53.3006 129.597 60.2613C127.439 73.8163 119.419 83.0667 115.807 86.7608C119.465 84.1047 131.388 74.7627 135.229 58.5822C137.479 49.1333 136.102 41.0125 135.735 39.0892C134.923 34.7235 133.485 30.4035 131.357 26.2515C120.399 4.74359 95.1764 -4.73578 73.0301 3.38503C71.2853 4.02615 69.5405 4.77412 67.8417 5.64421Z" fill="#2AC4A6"/>
</g>
<defs>
<clipPath id="clip0_69_822">
<rect width="136" height="94" fill="white" transform="translate(0.5 0.5)"/>
</clipPath>
</defs>
</svg>
