<svg width="24" height="24" viewBox="0 0 24 24" fill="none" xmlns="http://www.w3.org/2000/svg">
<path d="M20.6288 12.6704C20.4743 14.3423 19.8468 15.9357 18.8198 17.264C17.7928 18.5924 16.4087 19.6008 14.8295 20.1712C13.2503 20.7416 11.5413 20.8505 9.90247 20.4851C8.26365 20.1196 6.76279 19.295 5.57551 18.1078C4.38823 16.9205 3.56363 15.4196 3.19822 13.7808C2.8328 12.142 2.94167 10.433 3.51209 8.85378C4.08251 7.27457 5.09088 5.89048 6.41922 4.86345C7.74756 3.83643 9.34093 3.20895 11.0129 3.05444C10.034 4.37874 9.56296 6.01039 9.68543 7.65263C9.80789 9.29487 10.5157 10.8386 11.6802 12.0031C12.8447 13.1675 14.3884 13.8754 16.0306 13.9978C17.6729 14.1203 19.3045 13.6493 20.6288 12.6704Z" stroke="white" stroke-width="1.105" stroke-linecap="round" stroke-linejoin="round"/>
</svg>
