<svg width="60" height="179" viewBox="0 0 60 179" fill="none" xmlns="http://www.w3.org/2000/svg">
<g clip-path="url(#clip0_116_411)">
<path d="M58.8096 149.671C58.8096 165.685 45.5364 178.616 29.3381 178.155C14.4373 177.732 2.18639 165.724 1.55733 150.907C1.1563 141.425 5.41032 132.914 12.2435 127.453V18.9084C12.2356 9.05914 20.264 1.06396 30.1717 1.06396C40.0793 1.06396 48.1077 9.05914 48.1077 18.9084V127.453C54.6342 132.679 58.8096 140.69 58.8096 149.671Z" stroke="white" stroke-width="1.83811" stroke-miterlimit="10"/>
<path d="M30.1717 167.789C40.3685 167.789 48.6346 159.565 48.6346 149.421C48.6346 139.276 40.3685 131.052 30.1717 131.052C19.975 131.052 11.7089 139.276 11.7089 149.421C11.7089 159.565 19.975 167.789 30.1717 167.789Z" fill="#2AC3A5"/>
<path d="M30.1677 131.106V18.6338" stroke="#2AC3A5" stroke-width="2.94097" stroke-miterlimit="10" stroke-linecap="round"/>
</g>
<defs>
<clipPath id="clip0_116_411">
<rect width="58.8563" height="178.671" fill="white" transform="translate(0.739258 0.281738)"/>
</clipPath>
</defs>
</svg>
