<svg width="35" height="35" viewBox="0 0 35 35" fill="none" xmlns="http://www.w3.org/2000/svg">
<path d="M17.499 21.5891C19.8565 21.5891 21.7677 19.678 21.7677 17.3204C21.7677 14.9628 19.8565 13.0516 17.499 13.0516C15.1414 13.0516 13.2302 14.9628 13.2302 17.3204C13.2302 19.678 15.1414 21.5891 17.499 21.5891Z" stroke="white" stroke-width="1.06719" stroke-linecap="round" stroke-linejoin="round"/>
<path d="M28.0286 21.5892C27.8392 22.0183 27.7827 22.4944 27.8664 22.956C27.9501 23.4176 28.1701 23.8435 28.4982 24.1789L28.5835 24.2643C28.8481 24.5286 29.058 24.8424 29.2012 25.1879C29.3445 25.5334 29.4182 25.9037 29.4182 26.2777C29.4182 26.6517 29.3445 27.022 29.2012 27.3675C29.058 27.7129 28.8481 28.0268 28.5835 28.2911C28.3192 28.5557 28.0054 28.7656 27.6599 28.9088C27.3144 29.052 26.9441 29.1258 26.5701 29.1258C26.1961 29.1258 25.8258 29.052 25.4803 28.9088C25.1348 28.7656 24.821 28.5557 24.5567 28.2911L24.4713 28.2057C24.1359 27.8777 23.71 27.6576 23.2484 27.5739C22.7868 27.4903 22.3108 27.5468 21.8816 27.7362C21.4607 27.9165 21.1018 28.216 20.849 28.5978C20.5962 28.9795 20.4605 29.4269 20.4587 29.8848V30.1267C20.4587 30.8814 20.1588 31.6053 19.6251 32.139C19.0915 32.6727 18.3676 32.9725 17.6128 32.9725C16.8581 32.9725 16.1342 32.6727 15.6005 32.139C15.0668 31.6053 14.767 30.8814 14.767 30.1267V29.9986C14.756 29.5276 14.6035 29.0709 14.3295 28.6877C14.0554 28.3045 13.6724 28.0126 13.2303 27.85C12.8011 27.6606 12.325 27.6041 11.8634 27.6878C11.4018 27.7715 10.9759 27.9915 10.6405 28.3196L10.5552 28.4049C10.2909 28.6695 9.97701 28.8794 9.63153 29.0227C9.28605 29.1659 8.91573 29.2396 8.54175 29.2396C8.16776 29.2396 7.79744 29.1659 7.45196 29.0227C7.10648 28.8794 6.79262 28.6695 6.52832 28.4049C6.26372 28.1406 6.05382 27.8268 5.9106 27.4813C5.76739 27.1358 5.69367 26.7655 5.69367 26.3915C5.69367 26.0175 5.76739 25.6472 5.9106 25.3017C6.05382 24.9562 6.26372 24.6424 6.52832 24.3781L6.61369 24.2927C6.94173 23.9574 7.16178 23.5314 7.24548 23.0698C7.32917 22.6083 7.27267 22.1322 7.08326 21.703C6.90288 21.2821 6.60339 20.9232 6.22163 20.6704C5.83988 20.4176 5.39253 20.2819 4.93465 20.2801H4.69276C3.938 20.2801 3.21415 19.9803 2.68045 19.4466C2.14675 18.9129 1.84692 18.189 1.84692 17.4343C1.84692 16.6795 2.14675 15.9556 2.68045 15.4219C3.21415 14.8882 3.938 14.5884 4.69276 14.5884H4.82082C5.2918 14.5774 5.74857 14.425 6.13175 14.1509C6.51493 13.8768 6.80681 13.4938 6.96942 13.0517C7.15884 12.6225 7.21534 12.1464 7.13164 11.6848C7.04795 11.2232 6.8279 10.7973 6.49986 10.462L6.41449 10.3766C6.14989 10.1123 5.93999 9.79842 5.79677 9.45294C5.65356 9.10746 5.57984 8.73714 5.57984 8.36316C5.57984 7.98917 5.65356 7.61885 5.79677 7.27337C5.93999 6.92789 6.14989 6.61403 6.41449 6.34973C6.67879 6.08514 6.99265 5.87523 7.33813 5.73201C7.68361 5.5888 8.05393 5.51509 8.42791 5.51509C8.8019 5.51509 9.17222 5.5888 9.5177 5.73201C9.86318 5.87523 10.177 6.08514 10.4413 6.34973L10.5267 6.43511C10.8621 6.76314 11.288 6.98319 11.7496 7.06689C12.2112 7.15058 12.6872 7.09408 13.1164 6.90467H13.2303C13.6511 6.7243 14.01 6.4248 14.2629 6.04304C14.5157 5.66129 14.6513 5.21394 14.6532 4.75606V4.51417C14.6532 3.75941 14.953 3.03556 15.4867 2.50186C16.0204 1.96816 16.7442 1.66833 17.499 1.66833C18.2538 1.66833 18.9776 1.96816 19.5113 2.50186C20.045 3.03556 20.3448 3.75941 20.3448 4.51417V4.64223C20.3467 5.10011 20.4823 5.54746 20.7352 5.92921C20.988 6.31096 21.3469 6.61046 21.7678 6.79083C22.1969 6.98025 22.673 7.03675 23.1346 6.95305C23.5962 6.86936 24.0221 6.64931 24.3575 6.32127L24.4428 6.2359C24.7071 5.9713 25.021 5.7614 25.3665 5.61818C25.712 5.47497 26.0823 5.40125 26.4563 5.40125C26.8303 5.40125 27.2006 5.47497 27.5461 5.61818C27.8915 5.7614 28.2054 5.9713 28.4697 6.2359C28.7343 6.5002 28.9442 6.81406 29.0874 7.15954C29.2306 7.50502 29.3043 7.87534 29.3043 8.24932C29.3043 8.62331 29.2306 8.99363 29.0874 9.33911C28.9442 9.68459 28.7343 9.99845 28.4697 10.2628L28.3843 10.3481C28.0563 10.6835 27.8362 11.1094 27.7525 11.571C27.6688 12.0326 27.7253 12.5087 27.9148 12.9378V13.0517C28.0951 13.4725 28.3946 13.8315 28.7764 14.0843C29.1581 14.3371 29.6055 14.4728 30.0634 14.4746H30.3053C31.06 14.4746 31.7839 14.7744 32.3176 15.3081C32.8513 15.8418 33.1511 16.5657 33.1511 17.3204C33.1511 18.0752 32.8513 18.799 32.3176 19.3327C31.7839 19.8664 31.06 20.1663 30.3053 20.1663H30.1772C29.7193 20.1681 29.272 20.3038 28.8902 20.5566C28.5085 20.8094 28.209 21.1683 28.0286 21.5892Z" stroke="white" stroke-width="1.06719" stroke-linecap="round" stroke-linejoin="round"/>
</svg>
