<svg width="35" height="35" viewBox="0 0 35 35" fill="none" xmlns="http://www.w3.org/2000/svg">
<path d="M12.8062 31.5493C13.5921 31.5493 14.2291 30.9122 14.2291 30.1263C14.2291 29.3405 13.5921 28.7034 12.8062 28.7034C12.0204 28.7034 11.3833 29.3405 11.3833 30.1263C11.3833 30.9122 12.0204 31.5493 12.8062 31.5493Z" stroke="white" stroke-width="1.07" stroke-linecap="round" stroke-linejoin="round"/>
<path d="M28.4583 31.5493C29.2442 31.5493 29.8812 30.9122 29.8812 30.1263C29.8812 29.3405 29.2442 28.7034 28.4583 28.7034C27.6725 28.7034 27.0354 29.3405 27.0354 30.1263C27.0354 30.9122 27.6725 31.5493 28.4583 31.5493Z" stroke="white" stroke-width="1.07" stroke-linecap="round" stroke-linejoin="round"/>
<path d="M1.42285 1.66803H6.62038L10.1027 20.7209C10.2215 21.376 10.547 21.9645 11.0221 22.3833C11.4972 22.8021 12.0917 23.0246 12.7015 23.0118H25.3315C25.9413 23.0246 26.5358 22.8021 27.0109 22.3833C27.486 21.9645 27.8114 21.376 27.9302 20.7209L30.0092 8.78261H7.91976" stroke="white" stroke-width="1.07" stroke-linecap="round" stroke-linejoin="round"/>
</svg>
